<?xml version="1.0" standalone="no"?>
<!DOCTYPE svg PUBLIC "-//W3C//DTD SVG 20010904//EN" "http://www.w3.org/TR/2001/REC-SVG-20010904/DTD/svg10.dtd">
<!-- Created using Krita: https://krita.org -->
<svg xmlns="http://www.w3.org/2000/svg" 
    xmlns:xlink="http://www.w3.org/1999/xlink"
    xmlns:krita="http://krita.org/namespaces/svg/krita"
    xmlns:sodipodi="http://sodipodi.sourceforge.net/DTD/sodipodi-0.dtd"
    width="24pt"
    height="24pt"
    viewBox="0 0 24 24">
<defs>
  <radialGradient id="gradient0" gradientUnits="objectBoundingBox" cx="0.5" cy="0.317253266210566" fx="0.5" fy="0.5" r="1.61881420196368" spreadMethod="pad">
   <stop stop-color="#505050" offset="0" stop-opacity="1"/>
   <stop stop-color="#bebebe" offset="0.0336" stop-opacity="1"/>
   <stop stop-color="#fcfcfc" offset="0.2013" stop-opacity="1"/>
   <stop stop-color="#f5f5f5" offset="0.899328859060403" stop-opacity="1"/>
   <stop stop-color="#ffffff" offset="1" stop-opacity="1"/>
  </radialGradient>
 </defs>
<rect id="shape0" transform="matrix(1.4397493893882 0 0 1.4397493893882 3.51638285710962 3.51638644889116)" fill="none" stroke="#000000" stroke-width="0.12" stroke-linecap="square" stroke-linejoin="bevel" width="11.76" height="11.76"/><rect id="shape01" transform="matrix(1.43974933366189 0 0 1.43974933366189 3.54422031630754 3.45783883078518)" fill="#ffffff" stroke="#000000" stroke-width="0.12" stroke-linecap="square" stroke-linejoin="bevel" width="11.76" height="11.76"/><rect id="shape1" transform="matrix(1.01805655644559 1.01805655644559 -1.01805655644559 1.01805655644559 11.9694584947207 0.0403100128271648)" fill="none" stroke="#000000" stroke-width="0.12" stroke-linecap="square" stroke-linejoin="bevel" width="11.76" height="11.76"/><rect id="shape011" transform="matrix(1.01805651704114 1.01805651704114 -1.01805651704114 1.01805651704114 12 0.0276553595962387)" fill="#ffffff" stroke="#000000" stroke-width="0.12" stroke-linecap="square" stroke-linejoin="bevel" width="11.76" height="11.76"/><rect id="shape2" transform="matrix(1.33015499280138 0.550968238076619 -0.550968238076619 1.33015499280138 7.40377880529875 0.904579718318905)" fill="none" stroke="#000000" stroke-width="0.12" stroke-linecap="square" stroke-linejoin="bevel" width="11.76" height="11.76"/><rect id="shape02" transform="matrix(1.33015494131698 0.550968216751083 -0.550968216751083 1.33015494131698 7.45190246754242 0.861141706707673)" fill="#ffffff" stroke="#000000" stroke-width="0.12" stroke-linecap="square" stroke-linejoin="bevel" width="11.76" height="11.76"/><rect id="shape3" transform="matrix(0.550968238076619 1.33015499280138 -1.33015499280138 0.550968238076619 16.5436392353739 0.927955844637326)" fill="none" stroke="#000000" stroke-width="0.12" stroke-linecap="square" stroke-linejoin="bevel" width="11.76" height="11.76"/><rect id="shape03" transform="matrix(0.550968216751083 1.33015494131698 -1.33015494131698 0.550968216751083 16.6083831158533 0.93126909997379)" fill="#ffffff" stroke="#000000" stroke-width="0.12" stroke-linecap="square" stroke-linejoin="bevel" width="11.76" height="11.76"/><rect id="shape4" transform="matrix(1.4126328125561 0.278113000655355 -0.278113000655355 1.4126328125561 5.3119457085214 2.03218398776456)" fill="none" stroke="#000000" stroke-width="0.12" stroke-linecap="square" stroke-linejoin="bevel" width="11.76" height="11.76"/><rect id="shape04" transform="matrix(1.41263275787936 0.278112989890835 -0.278112989890835 1.41263275787936 5.35056837607987 1.98011636566456)" fill="#ffffff" stroke="#000000" stroke-width="0.12" stroke-linecap="square" stroke-linejoin="bevel" width="11.76" height="11.76"/><rect id="shape5" transform="matrix(0.802226652385506 1.19553782978459 -1.19553782978459 0.802226652385506 14.2772796450992 0.254437512538053)" fill="none" stroke="#000000" stroke-width="0.12" stroke-linecap="square" stroke-linejoin="bevel" width="11.76" height="11.76"/><rect id="shape05" transform="matrix(0.802226621334872 1.19553778351062 -1.19553778351062 0.802226621334872 14.3414073639045 0.244930494008984)" fill="#ffffff" stroke="#000000" stroke-width="0.12" stroke-linecap="square" stroke-linejoin="bevel" width="11.76" height="11.76"/><rect id="shape6" transform="matrix(1.19867330479829 0.7975340824113 -0.7975340824113 1.19867330479829 9.63064209041262 0.22048776132386)" fill="none" stroke="#000000" stroke-width="0.12" stroke-linecap="square" stroke-linejoin="bevel" width="11.76" height="11.76"/><rect id="shape06" transform="matrix(1.19867325840297 0.797534051542295 -0.797534051542295 1.19867325840297 9.6862501988012 0.187163805947503)" fill="#ffffff" stroke="#000000" stroke-width="0.12" stroke-linecap="square" stroke-linejoin="bevel" width="11.76" height="11.76"/><rect id="shape7" transform="matrix(0.283648264349741 1.41153178015058 -1.41153178015058 0.283648264349741 18.5938447395604 2.00894894201681)" fill="none" stroke="#000000" stroke-width="0.12" stroke-linecap="square" stroke-linejoin="bevel" width="11.76" height="11.76"/><rect id="shape07" transform="matrix(0.283648253370975 1.41153172551645 -1.41153172551645 0.283648253370975 18.6567292049134 2.02470621772475)" fill="#ffffff" stroke="#000000" stroke-width="0.12" stroke-linecap="square" stroke-linejoin="bevel" width="11.76" height="11.76"/><rect id="shape8" transform="matrix(1.43285349861297 0.14074500259786 -0.14074500259786 1.43285349861297 4.38471859026611 2.72513137978574)" fill="none" stroke="#000000" stroke-width="0.12" stroke-linecap="square" stroke-linejoin="bevel" width="11.76" height="11.76"/><rect id="shape08" transform="matrix(1.43285344315357 0.140744997150245 -0.140744997150245 1.43285344315357 4.41814613385209 2.66958547939438)" fill="#ffffff" stroke="#000000" stroke-width="0.12" stroke-linecap="square" stroke-linejoin="bevel" width="11.76" height="11.76"/><rect id="shape9" transform="matrix(0.913658679561035 1.11270217107116 -1.11270217107116 0.913658679561035 13.137116390393 0.092048040263826)" fill="none" stroke="#000000" stroke-width="0.12" stroke-linecap="square" stroke-linejoin="bevel" width="11.76" height="11.76"/><rect id="shape09" transform="matrix(0.91365864419736 1.1127021280034 -1.1127021280034 0.91365864419736 13.2000301159749 0.0764080001780244)" fill="#ffffff" stroke="#000000" stroke-width="0.12" stroke-linecap="square" stroke-linejoin="bevel" width="11.76" height="11.76"/><rect id="shape10" transform="matrix(1.26992323977333 0.678360722128948 -0.678360722128948 1.26992323977333 8.50881662684128 0.505852884288464)" fill="none" stroke="#000000" stroke-width="0.12" stroke-linecap="square" stroke-linejoin="bevel" width="11.76" height="11.76"/><rect id="shape010" transform="matrix(1.26992319062023 0.678360695872616 -0.678360695872616 1.26992319062023 8.56095614599806 0.467327330916976)" fill="#ffffff" stroke="#000000" stroke-width="0.12" stroke-linecap="square" stroke-linejoin="bevel" width="11.76" height="11.76"/><rect id="shape11" transform="matrix(0.418297867722128 1.37764480113809 -1.37764480113809 0.418297867722128 17.6026151848469 1.4225987110849)" fill="none" stroke="#000000" stroke-width="0.12" stroke-linecap="square" stroke-linejoin="bevel" width="11.76" height="11.76"/><rect id="shape011" transform="matrix(0.418297851531674 1.37764474781558 -1.37764474781558 0.418297851531674 17.6667250724484 1.43222523861053)" fill="#ffffff" stroke="#000000" stroke-width="0.12" stroke-linecap="square" stroke-linejoin="bevel" width="11.76" height="11.76"/><rect id="shape12" transform="matrix(1.37867941973584 0.414875115957248 -0.414875115957248 1.37867941973584 6.31677191383369 1.42356584018517)" fill="none" stroke="#000000" stroke-width="0.12" stroke-linecap="square" stroke-linejoin="bevel" width="11.76" height="11.76"/><rect id="shape012" transform="matrix(1.37867936637328 0.414875099899274 -0.414875099899274 1.37867936637328 6.33283091313286 1.4538997383174)" fill="#ffffff" stroke="#000000" stroke-width="0.12" stroke-linecap="square" stroke-linejoin="bevel" width="11.76" height="11.76"/><rect id="shape13" transform="matrix(0.681512558938622 1.26823457461647 -1.26823457461647 0.681512558938622 15.4129515170758 0.53075468988693)" fill="none" stroke="#000000" stroke-width="0.12" stroke-linecap="square" stroke-linejoin="bevel" width="11.76" height="11.76"/><rect id="shape013" transform="matrix(0.681512532560296 1.26823452552874 -1.26823452552874 0.681512532560296 15.477701460561 0.527562114258985)" fill="#ffffff" stroke="#000000" stroke-width="0.12" stroke-linecap="square" stroke-linejoin="bevel" width="11.76" height="11.76"/><rect id="shape14" transform="matrix(1.1149678644111 0.91089240065677 -0.91089240065677 1.1149678644111 10.7918885263678 0.0427280654696487)" fill="none" stroke="#000000" stroke-width="0.12" stroke-linecap="square" stroke-linejoin="bevel" width="11.76" height="11.76"/><rect id="shape014" transform="matrix(1.11496782125564 0.910892365400168 -0.910892365400168 1.11496782125564 10.8504879280857 0.0149997795726247)" fill="#ffffff" stroke="#000000" stroke-width="0.12" stroke-linecap="square" stroke-linejoin="bevel" width="11.76" height="11.76"/><rect id="shape15" transform="matrix(0.144303144294474 1.43249953116587 -1.43249953116587 0.144303144294474 19.5373267212997 2.69883534928923)" fill="none" stroke="#000000" stroke-width="0.12" stroke-linecap="square" stroke-linejoin="bevel" width="11.76" height="11.76"/><rect id="shape015" transform="matrix(0.14430313870914 1.43249947572016 -1.43249947572016 0.14430313870914 19.5983696146163 2.72066452462896)" fill="#ffffff" stroke="#000000" stroke-width="0.12" stroke-linecap="square" stroke-linejoin="bevel" width="11.76" height="11.76"/><ellipse id="shape16" transform="matrix(1.4397493893882 0 0 1.4397493893882 0.856339748378352 0.856339748378351)" rx="7.73999998455077" ry="7.73999998455077" cx="7.73999998455077" cy="7.73999998455077" fill="url(#gradient0)" fill-rule="evenodd" stroke="#ffffff" stroke-width="0.36" stroke-linecap="square" stroke-linejoin="bevel"/>
</svg>
